<svg xmlns="http://www.w3.org/2000/svg" xml:space="preserve" width="512" height="512" style="enable-background:new 0 0 313.65 313.65" viewBox="0 0 313.65 313.65"><path d="M184 108.075v164h-68v-164h68z" style="fill:#c4c8c4"/><path d="M116 108.075h34v164h-34z" style="fill:#a5a9a6"/><path d="M277.87 205.575H22.13c-12.222 0-22.13-9.908-22.13-22.13V43.705c0-12.222 9.908-22.13 22.13-22.13h255.74c12.222 0 22.13 9.908 22.13 22.13v139.741c0 12.221-9.908 22.129-22.13 22.129z" style="fill:#1c7287"/><path d="M150 205.575H22.13c-12.222 0-22.13-9.908-22.13-22.13V43.705c0-12.222 9.908-22.13 22.13-22.13H150v184z" style="fill:#165c6c"/><path d="M26 48.643h248v129.865H26z" style="fill:#32a5b9"/><path d="M26 48.643h124v129.865H26z" style="fill:#2b8a9a"/><path d="M219 292.075H81c-8.284 0-15-6.716-15-15s6.716-15 15-15h138c8.284 0 15 6.716 15 15s-6.716 15-15 15z" style="fill:#1c7287"/><path d="M150 292.075H81c-8.284 0-15-6.716-15-15s6.716-15 15-15h69v30z" style="fill:#165c6c"/><path d="M233.188 99.182h72.423a8.038 8.038 0 0 1 8.038 8.038v141.816a8.038 8.038 0 0 1-8.038 8.038h-72.423a8.038 8.038 0 0 1-8.038-8.038V107.221a8.037 8.037 0 0 1 8.038-8.039z" style="fill:#e45527"/><path d="M276.128 235.075h-13.905c-1.858 0-3.364 1.642-3.364 3.5s1.506 3.5 3.364 3.5h13.905c1.858 0 3.364-1.642 3.364-3.5s-1.506-3.5-3.364-3.5z" style="fill:#e6e6e6"/><path d="M236.912 116.775h64.975v102.793h-64.975z" style="fill:#32a5b9"/></svg>