<svg xmlns="http://www.w3.org/2000/svg" xml:space="preserve" style="enable-background:new 0 0 512 512" viewBox="0 0 512 512"><path d="M255.999 512a11.07 11.07 0 0 1-7.835-3.221l-47.332-46.876-64.437 16.927c-.946.25-1.903.376-2.857.376-4.984 0-9.387-3.374-10.709-8.205l-17.559-64.27L41 389.171c-5.86-1.601-9.372-7.687-7.829-13.566l16.927-64.436-46.876-47.333c-4.272-4.319-4.272-11.349.002-15.67l46.875-47.331-16.927-64.437c-1.544-5.878 1.969-11.964 7.829-13.566l64.27-17.559 17.56-64.27c1.32-4.828 5.728-8.201 10.717-8.201.952 0 1.909.125 2.843.371L200.833 50.1l47.333-46.877C250.265 1.145 253.048 0 255.999 0s5.734 1.145 7.835 3.223l47.332 46.876 64.437-16.927c.939-.247 1.9-.372 2.854-.372 4.99 0 9.394 3.371 10.711 8.199l17.56 64.272 64.27 17.56c5.86 1.601 9.372 7.687 7.829 13.566L461.9 200.833l46.877 47.333c4.272 4.319 4.272 11.349-.002 15.67L461.9 311.168l16.927 64.437c1.544 5.878-1.969 11.964-7.829 13.566l-64.27 17.56-17.56 64.27c-1.318 4.832-5.719 8.205-10.703 8.205-.955 0-1.916-.126-2.854-.374l-64.445-16.928-47.333 46.877a11.068 11.068 0 0 1-7.834 3.219z" style="fill:#ff5023"/><path d="m461.902 200.834 16.927-64.436c1.544-5.879-1.969-11.965-7.829-13.566l-64.27-17.56L389.169 41c-1.317-4.827-5.721-8.199-10.711-8.199-.954 0-1.914.125-2.854.372L311.167 50.1 263.835 3.223C261.735 1.145 259.34 0 256.001 0v512c3.339 0 5.736-1.144 7.834-3.221l47.333-46.877 64.445 16.928c.939.248 1.899.374 2.854.374 4.984 0 9.385-3.374 10.703-8.205l17.56-64.27 64.27-17.56c5.86-1.601 9.372-7.687 7.829-13.566l-16.927-64.437 46.875-47.331c4.274-4.321 4.274-11.352.002-15.67l-46.877-47.331z" style="fill:#cd2a00"/><path d="M189.217 244.871c-30.684 0-55.652-24.968-55.652-55.652s24.968-55.652 55.652-55.652 55.652 24.968 55.652 55.652-24.968 55.652-55.652 55.652zm0-77.913c-12.277 0-22.261 9.984-22.261 22.261s9.984 22.261 22.261 22.261 22.261-9.984 22.261-22.261-9.984-22.261-22.261-22.261z" style="fill:#fff"/><path d="M322.782 378.435c-30.684 0-55.652-24.968-55.652-55.652s24.968-55.652 55.652-55.652 55.652 24.968 55.652 55.652-24.968 55.652-55.652 55.652zm0-77.912c-12.277 0-22.261 9.984-22.261 22.261s9.984 22.261 22.261 22.261 22.261-9.984 22.261-22.261-9.984-22.261-22.261-22.261z" style="fill:#d1e7f8"/><path d="M178.087 350.609a16.639 16.639 0 0 1-11.804-4.892c-6.521-6.516-6.521-17.092 0-23.609l155.825-155.825c6.521-6.521 17.087-6.521 23.609 0 6.521 6.516 6.521 17.092 0 23.609L189.892 345.718a16.64 16.64 0 0 1-11.805 4.891z" style="fill:#fff"/><path d="M322.108 166.285 256 232.394v47.217l89.716-89.716c6.521-6.516 6.521-17.092 0-23.609-6.52-6.523-17.086-6.523-23.608-.001z" style="fill:#d1e7f8"/></svg>