<svg xmlns="http://www.w3.org/2000/svg" xml:space="preserve" style="enable-background:new 0 0 511.999 511.999" viewBox="0 0 511.999 511.999"><path d="M411.91 317.389H197.532v-45.473c.001-15.618-6.081-30.301-17.124-41.344-11.042-11.044-25.725-17.124-41.341-17.124-9.294 0-18.251 2.17-26.314 6.243a58.594 58.594 0 0 0-15.029 10.881 61.665 61.665 0 0 0-1.714 1.799 58.238 58.238 0 0 0-10.662 16.417 58.303 58.303 0 0 0-4.747 23.126V375.57c0 50.299 21.644 98.25 59.385 131.554.453.399.919.772 1.395 1.121.372.272.76.52 1.149.763.107.068.208.144.316.209a19.418 19.418 0 0 0 1.533.831c1.051.509 2.133.917 3.238 1.225.013.003.026.008.038.012.52.146 1.05.264 1.581.365.045.008.09.022.135.03.515.094 1.034.161 1.557.213.064.007.126.02.19.025.583.053 1.168.081 1.755.081h.008l206.243-.003a19.49 19.49 0 0 0 12.896-4.876c37.736-33.305 59.379-81.253 59.379-131.55v-58.181H411.91z" style="fill:#ecb45c"/><path d="M450.889 0H61.111C50.348 0 41.622 8.726 41.622 19.489v278.414c0 10.763 8.726 19.489 19.489 19.489H80.6V271.918a58.343 58.343 0 0 1 4.747-23.125 58.238 58.238 0 0 1 10.662-16.417 60.417 60.417 0 0 1 1.714-1.799 58.499 58.499 0 0 1 15.029-10.881c8.063-4.072 17.02-6.243 26.314-6.243 15.617-.001 30.299 6.081 41.341 17.124 11.044 11.044 17.126 25.727 17.124 41.344v45.473h253.357c10.763 0 19.489-8.726 19.489-19.489V19.489C470.378 8.726 461.652 0 450.889 0z" style="fill:#6dc82a"/><path d="M197.532 319.343c44.681 9.062 78.419 48.64 78.419 95.955 0 10.763-8.726 19.489-19.489 19.489s-19.489-8.726-19.489-19.489a58.544 58.544 0 0 0-5.641-25.129 59.3 59.3 0 0 0-28.16-28.161 58.566 58.566 0 0 0-25.13-5.64c-1.06 0-2.093-.108-3.108-.272-9.283-1.49-16.381-9.514-16.381-19.217v-64.963c0-5.206-2.027-10.1-5.708-13.781a19.36 19.36 0 0 0-13.779-5.708c-5.207 0-10.1 2.027-13.783 5.709a19.36 19.36 0 0 0-5.708 13.779v103.656c0 1.186.017 2.371.047 3.553.012.394.031.787.045 1.181.027.789.053 1.577.095 2.365.025.465.058.928.087 1.393.044.713.088 1.427.144 2.139.038.494.086.985.13 1.479.061.681.122 1.362.192 2.041.052.507.113 1.011.172 1.516.078.663.153 1.327.242 1.988.068.511.139 1.02.212 1.529.094.654.187 1.308.291 1.961.081.511.166 1.02.252 1.529a126.96 126.96 0 0 0 1.022 5.394 139.18 139.18 0 0 0 .771 3.437c.117.492.236.986.357 1.477.162.65.331 1.295.503 1.941.127.481.253.961.387 1.441.183.659.373 1.316.566 1.972.135.461.268.924.408 1.384.204.673.42 1.343.635 2.013.14.439.279.88.424 1.317.234.7.477 1.397.722 2.093.14.401.277.803.421 1.203.278.769.569 1.533.86 2.296.123.322.24.647.365.968.398 1.019.808 2.031 1.229 3.038.027.064.052.129.079.191.457 1.087.929 2.17 1.414 3.244.081.175.165.35.244.524.404.881.809 1.76 1.23 2.632.161.334.33.664.494.997a145.6 145.6 0 0 0 1.064 2.129c.195.381.399.758.599 1.137.342.65.682 1.299 1.035 1.945.223.407.452.809.677 1.213.343.611.685 1.22 1.037 1.825.243.418.491.833.738 1.249.35.586.698 1.169 1.056 1.751.259.421.524.841.787 1.259a121.463 121.463 0 0 0 1.917 2.959 118.437 118.437 0 0 0 1.991 2.905c.378.537.761 1.072 1.149 1.603a119.819 119.819 0 0 0 2.103 2.816c.313.409.628.819.946 1.224.407.517.82 1.03 1.234 1.544.324.401.647.803.976 1.201.424.511.852 1.016 1.284 1.52.333.39.661.781.997 1.167.444.509.896 1.01 1.347 1.512.335.373.668.75 1.007 1.12.364.396.737.785 1.107 1.178.109.117.218.234.33.351.33.35.655.702.99 1.046.538.556 1.086 1.103 1.634 1.65.287.287.569.578.859.864l.052.049 190.934-.003c26.109-25.599 40.95-60.721 40.95-97.45V317.39H197.53v1.951h.002z" style="fill:#efc27b"/><path d="M80.6 111.168v95.056a93.11 93.11 0 0 1 32.153 13.465c8.063-4.072 17.02-6.243 26.314-6.243 15.617-.001 30.299 6.081 41.341 17.124 11.044 11.042 17.126 25.727 17.124 41.344v6.495h58.467v-63.695c-39.609-.001-70.635-24.608-70.635-56.021 0-31.415 31.026-56.023 70.635-56.023V38.978H152.792c-7.66 36.07-36.123 64.531-72.192 72.19z" style="fill:#64c37d"/><path d="M256 102.671c39.608 0 70.634 24.608 70.634 56.023 0 31.413-31.026 56.021-70.634 56.021h-.001v63.695h103.208c7.66-36.07 36.122-64.532 72.193-72.191v-95.051c-36.071-7.659-64.533-36.121-72.193-72.191H255.999v63.694H256z" style="fill:#a4e276"/><path d="M80.6 278.412v-6.496a58.343 58.343 0 0 1 4.747-23.125 58.26 58.26 0 0 1 10.662-16.417 60.417 60.417 0 0 1 1.714-1.799 58.554 58.554 0 0 1 15.029-10.883 93.026 93.026 0 0 0-32.153-13.465v-95.056c36.07-7.659 64.533-36.121 72.192-72.191h103.207V0H61.111C50.348 0 41.622 8.726 41.622 19.489v278.414c0 10.763 8.726 19.489 19.489 19.489H80.6V278.412zM197.532 297.9v19.489h58.467v-38.977h-58.467z" style="fill:#368b4c"/><path d="M185.362 158.695c0 31.413 31.026 56.021 70.635 56.021V102.671c-39.609.002-70.635 24.608-70.635 56.024z" style="fill:#368b4c"/><path d="M326.634 158.695c0-31.415-31.026-56.023-70.634-56.023h-.001v112.044H256c39.608.001 70.634-24.607 70.634-56.021z" style="fill:#6dc82a"/></svg>