<svg xmlns="http://www.w3.org/2000/svg" width="512" height="512"><g fill="none" fill-rule="nonzero"><g fill="#FFF"><path d="M131.879 217.212c-21.388 0-38.788 17.4-38.788 38.788 0 21.388 17.4 38.788 38.788 38.788 21.388 0 38.788-17.4 38.788-38.788 0-21.388-17.401-38.788-38.788-38.788ZM256 217.212c-21.388 0-38.788 17.4-38.788 38.788 0 21.388 17.4 38.788 38.788 38.788 21.388 0 38.788-17.4 38.788-38.788 0-21.388-17.4-38.788-38.788-38.788ZM341.333 256c0 21.388 17.4 38.788 38.788 38.788 21.388 0 38.788-17.4 38.788-38.788 0-21.388-17.4-38.788-38.788-38.788-21.387 0-38.788 17.4-38.788 38.788Z"/></g><path fill="#753BE6" d="M256 0v217.212c21.388 0 38.788 17.4 38.788 38.788 0 21.388-17.4 38.788-38.788 38.788V512c141.158 0 256-114.842 256-256C512 114.842 397.158 0 256 0Zm124.121 294.788c-21.388 0-38.788-17.4-38.788-38.788 0-21.388 17.4-38.788 38.788-38.788 21.388 0 38.788 17.4 38.788 38.788 0 21.388-17.4 38.788-38.788 38.788Z"/><path fill="#5A1BBA" d="M217.212 256c0-21.388 17.4-38.788 38.788-38.788V0C114.842 0 0 114.842 0 256c0 141.158 114.842 256 256 256V294.788c-21.388 0-38.788-17.4-38.788-38.788Zm-85.333 38.788c-21.388 0-38.788-17.4-38.788-38.788 0-21.388 17.4-38.788 38.788-38.788 21.388 0 38.788 17.4 38.788 38.788 0 21.388-17.401 38.788-38.788 38.788Z"/></g></svg>