<svg xmlns="http://www.w3.org/2000/svg" xml:space="preserve" width="512" height="512" style="enable-background:new 0 0 352 352" viewBox="0 0 352 352"><path d="M225.959 84h65.083c19.33 0 35 15.67 35 35v171c0 19.33-15.67 35-35 35h-65.083c-19.33 0-35-15.67-35-35V119c0-19.33 15.67-35 35-35z" style="fill:#1c7287"/><path d="M214.922 84h43.236v241h-43.236c-13.234 0-23.963-10.729-23.963-23.963V107.963c0-13.234 10.728-23.963 23.963-23.963z" style="fill:#165c6c"/><path d="M314.642 269.885H202.358V121.314H314.642z" style="fill:#32a5b9"/><path d="M202.358 121.314h55.8v148.571h-55.8z" style="fill:#2b8a9a"/><path d="M60.959 0h127.299c19.33 0 35 15.67 35 35v282c0 19.33-15.67 35-35 35H60.959c-19.33 0-35-15.67-35-35V35c0-19.33 15.67-35 35-35z" style="fill:#e45527"/><path d="M60.959 0h63.15v352h-63.15c-19.33 0-35-15.67-35-35V35c0-19.33 15.67-35 35-35z" style="fill:#b7461d"/><path d="M139.608 303h-31a7.5 7.5 0 0 0 0 15h31a7.5 7.5 0 0 0 0-15z" style="fill:#e6e6e6"/><path d="M206.608 271.5h-164v-217h164z" style="fill:#32a5b9"/><path d="M42.608 54.5h81.5v217h-81.5z" style="fill:#2b8a9a"/></svg>