<svg viewBox="0 0 24 24" xmlns="http://www.w3.org/2000/svg"><path d="M18 0H6a3 3 0 0 0-3 3v18a3 3 0 0 0 3 3h12a3 3 0 0 0 3-3V3a3 3 0 0 0-3-3Zm1 21a1 1 0 0 1-1 1H6a1 1 0 0 1-1-1V3a1 1 0 0 1 1-1h12a1 1 0 0 1 1 1Z" fill="#f5c320" class="fill-000000"></path><path d="M12 11a1 1 0 0 0 0 2 1 1 0 0 0 0-2ZM12 15a1 1 0 0 0 0 2 1 1 0 0 0 0-2ZM8 11a1 1 0 0 0 0 2 1 1 0 0 0 0-2ZM8 15a1 1 0 0 0 0 2 1 1 0 0 0 0-2ZM16 11a1 1 0 0 0 0 2 1 1 0 0 0 0-2ZM12 19a1 1 0 0 0 0 2 1 1 0 0 0 0-2ZM8 19a1 1 0 0 0 0 2 1 1 0 0 0 0-2ZM15 16v4a1 1 0 0 0 2 0v-4a1 1 0 0 0-2 0ZM17 3H7a1 1 0 0 0-1 1v5a1 1 0 0 0 1 1h10a1 1 0 0 0 1-1V4a1 1 0 0 0-1-1Zm-1 5H8V5h8Z" fill="#f5c320" class="fill-000000"></path></svg>