<svg id="Layer_1" data-name="Layer 1" xmlns="http://www.w3.org/2000/svg" viewBox="0 0 500 180"><defs><style>.cls-1,.cls-3{opacity:0.6;}.cls-2,.cls-3{fill:#76bc21;}.cls-4{fill:#434343;}.cls-5{fill:#1a1a1a;}.cls-6{fill:none;}</style></defs><title>404-desktop-500x180</title><g class="cls-1"><path class="cls-2" d="M292.56,167.08a9.17,9.17,0,0,1-9.06-7.84,11.13,11.13,0,0,1,9.4-12.6,10.4,10.4,0,0,1,8.32,2.08c2.8,2.29,4.42,6.11,4.69,11a1.3,1.3,0,1,1-2.6.14c-.23-4.13-1.55-7.39-3.74-9.17a7.76,7.76,0,0,0-6.29-1.51,8.52,8.52,0,0,0-7.2,9.65,6.56,6.56,0,0,0,7.42,5.54,5,5,0,0,0,4.21-5.64,3.72,3.72,0,0,0-4.22-3.15,2.72,2.72,0,0,0-2.3,3.08,1.92,1.92,0,0,0,2.17,1.62,1.3,1.3,0,1,1,.38,2.58,4.52,4.52,0,0,1-5.12-3.82,5.33,5.33,0,0,1,4.5-6,6.33,6.33,0,0,1,7.18,5.35,7.59,7.59,0,0,1-6.41,8.6A9.17,9.17,0,0,1,292.56,167.08Z"/></g><path class="cls-3" d="M389.54,153.41a11.34,11.34,0,0,0-.34-2.71c-2.11-1-1.35-1.58-3.83-1.58a16.33,16.33,0,0,0-15.49,11.32v10.23a12.32,12.32,0,0,0,7.36,2.45h9.83a12.34,12.34,0,0,0,2.47-.25Z"/><polygon class="cls-3" points="340 101.77 310.87 101.77 337.5 57.13 340 101.77"/><polygon class="cls-3" points="195.27 101.77 166.14 101.77 192.77 57.13 195.27 101.77"/><path class="cls-3" d="M205.23,160.06l-.52,0c-10.1,0-18.29,5.42-18.29,12.1h25.21Z"/><path class="cls-3" d="M174.64,171.08h12.11l-5-6.19A14.33,14.33,0,0,0,174.64,171.08Z"/><path class="cls-3" d="M26.21,117.25H53l2.5,2.5v48.76H84.13V144.2c0-1.29,0-3.7,2.5-3.7h26.8a11.07,11.07,0,0,0,11.06-11.06V95a11,11,0,0,0-.86-4.28,15.27,15.27,0,0,0-3.54-.43h-2.92a15.47,15.47,0,0,0-14.8,11.14v14.51l-2.5,2.5H86.63l-2.5-2.5v-93c0-.47,0-.93-.07-1.38a15.35,15.35,0,0,0-10.64-4.3H70.5a15.47,15.47,0,0,0-15,11.89v63.5L53,95.13H39.77l-2.5-2.5V50.75A11,11,0,0,0,37.11,49a15.2,15.2,0,0,0-6.54-1.48h0A15.46,15.46,0,0,0,15.15,62.91v43.28A11.07,11.07,0,0,0,26.21,117.25Z"/><path class="cls-4" d="M12.65,58a2.5,2.5,0,0,1-2.5-2.5v-4a2.5,2.5,0,1,1,5,0v4A2.5,2.5,0,0,1,12.65,58Z"/><path class="cls-4" d="M14.56,46.32a2.5,2.5,0,0,1-2.14-3.78,16.2,16.2,0,0,1,3-3.65,2.5,2.5,0,0,1,3.37,3.69,11.21,11.21,0,0,0-2.06,2.52A2.5,2.5,0,0,1,14.56,46.32Z"/><path class="cls-4" d="M24.19,39.83a2.5,2.5,0,0,1-.37-5,21,21,0,0,1,2.39-.18,16.14,16.14,0,0,1,2.33.17,2.5,2.5,0,0,1-.72,4.95,10.58,10.58,0,0,0-1.61-.12,11,11,0,0,0-1.64.12Z"/><path class="cls-4" d="M53.25,22.61a2.54,2.54,0,0,1-.42,0,2.5,2.5,0,0,1-2-2.88,19.25,19.25,0,0,1,1.3-4.4,2.5,2.5,0,1,1,4.59,2,14.2,14.2,0,0,0-1,3.25A2.5,2.5,0,0,1,53.25,22.61Z"/><path class="cls-4" d="M59.15,12.46A2.5,2.5,0,0,1,57.56,8,19.44,19.44,0,0,1,61.4,5.55,2.5,2.5,0,1,1,63.6,10a14.47,14.47,0,0,0-2.86,1.84A2.49,2.49,0,0,1,59.15,12.46Z"/><path class="cls-4" d="M74.19,9.19a2.5,2.5,0,0,1-.66-.09,14.19,14.19,0,0,0-3.35-.49,2.5,2.5,0,1,1,.13-5,19.18,19.18,0,0,1,4.54.66,2.5,2.5,0,0,1-.65,4.91Z"/><path class="cls-5" d="M99.87,99.08a2.5,2.5,0,0,1-2.5-2.5V94.95a16,16,0,0,1,.24-2.79,2.5,2.5,0,0,1,4.92.87,11,11,0,0,0-.17,1.92v1.63A2.5,2.5,0,0,1,99.87,99.08Z"/><path class="cls-5" d="M103.66,88.07a2.5,2.5,0,0,1-1.8-4.23,16.17,16.17,0,0,1,3.72-2.89A2.5,2.5,0,1,1,108,85.3a11.21,11.21,0,0,0-2.57,2A2.49,2.49,0,0,1,103.66,88.07Z"/><path class="cls-5" d="M118.38,84.83a2.5,2.5,0,0,1-.92-.18,10.92,10.92,0,0,0-3.16-.73,2.5,2.5,0,0,1,.4-5A15.91,15.91,0,0,1,119.3,80a2.5,2.5,0,0,1-.92,4.83Z"/><path class="cls-6" d="M26.21,117.25H53l2.5,2.5v48.76H84.13V144.2c0-1.29,0-3.7,2.5-3.7h26.8a11.07,11.07,0,0,0,11.06-11.06V95a11.06,11.06,0,1,0-22.12,0v20.93l-2.5,2.5H86.63l-2.5-2.5v-93a14.26,14.26,0,0,0-4.56-10.44l-5.25,6-4.14-3.65V15.9H62.81V27.39h-7.3V92.63L53,95.13H39.77l-2.5-2.5V50.75a11.06,11.06,0,0,0-5.53-9.56l-2.6,4.51-5.9-3.41-4.73,8.2V63.75H15.15v42.44A11.07,11.07,0,0,0,26.21,117.25Z"/><path class="cls-4" d="M198.12,43.68h-13l-36.75,60.24v3.14h40.23v17h9.56v-17h11.12V99.2H198.12ZM188.56,99.2H160.7l27.87-48.1Z"/><path class="cls-4" d="M343.32,99.2V43.68h-13l-36.75,60.24v3.14h40.23v17h9.56v-17h11.12V99.2Zm-9.56,0H305.89l27.87-48.1Z"/><path class="cls-4" d="M275.6,53.46a27.08,27.08,0,0,0-9.83-8,30.26,30.26,0,0,0-13.26-2.81,30.8,30.8,0,0,0-13.26,2.75,27.83,27.83,0,0,0-9.94,7.87A36.29,36.29,0,0,0,223,65.6a55,55,0,0,0-2.2,16.07v4.5a52.13,52.13,0,0,0,2.3,16,36.68,36.68,0,0,0,6.46,12.25,29,29,0,0,0,10.06,7.87,32.2,32.2,0,0,0,26.3,0,27.31,27.31,0,0,0,9.78-8,36.73,36.73,0,0,0,6.06-12.36,57.22,57.22,0,0,0,2.09-16v-4.5a54.44,54.44,0,0,0-2.14-15.68A37.59,37.59,0,0,0,275.6,53.46ZM274,85.95q0,15.45-5.33,23.34t-15.9,7.89a19,19,0,0,1-16-7.84q-6-7.83-6-23.18V81.66q0-15,5.73-23.06t16-8.07a18.42,18.42,0,0,1,9,2.2A19.5,19.5,0,0,1,268.31,59a31,31,0,0,1,4.21,9.75A50.85,50.85,0,0,1,274,81.44Z"/><path class="cls-3" d="M236.78,109.35a19,19,0,0,0,16,7.84q10.56,0,15.9-7.89T274,85.95V81.44a50.85,50.85,0,0,0-1.46-12.68,32.07,32.07,0,0,0-3.41-8.44,39.44,39.44,0,0,0-7.9-.76q-14.55,0-22.72,8.07-6.15,6.08-7.66,16.12v2.43Q230.83,101.51,236.78,109.35Z"/><path class="cls-3" d="M448,124.22v12l-2.5,2.5H434.84l-2.5-2.5V52.7a11,11,0,0,0-.33-2.62,15.56,15.56,0,0,0-6.7-1.53,15.78,15.78,0,0,0-15,10.94v49.19l-2.5,2.5H397.2l-2.5-2.5V91.63a9.84,9.84,0,0,0-.15-1.71,11.87,11.87,0,0,0-4.22-.78H388.7a12,12,0,0,0-10.78,6.78v23.66a8.4,8.4,0,0,0,8.39,8.39h21.53l2.5,2.5v38.67h22V158.79a2.5,2.5,0,0,1,0-.41,2.54,2.54,0,0,1,0-.41,2.5,2.5,0,0,1,2.5-2.5h21.52a8.4,8.4,0,0,0,8.39-8.39v-27.7a8.35,8.35,0,0,0-.66-3.27A15.49,15.49,0,0,0,448,124.22Z"/><path class="cls-4" d="M375.46,103.09a2.5,2.5,0,0,1-2.5-2.5v-4a2.5,2.5,0,1,1,5,0v4A2.5,2.5,0,0,1,375.46,103.09Z"/><path class="cls-4" d="M375.73,91.12a2.53,2.53,0,0,1-.56-.06,2.5,2.5,0,0,1-1.88-3,13.3,13.3,0,0,1,1.95-4.49,2.5,2.5,0,1,1,4.15,2.79,8.32,8.32,0,0,0-1.22,2.81A2.5,2.5,0,0,1,375.73,91.12Z"/><path class="cls-4" d="M383.7,83a2.5,2.5,0,0,1-.61-4.92,13.32,13.32,0,0,1,3.25-.4h0a13.33,13.33,0,0,1,1.63.1,2.5,2.5,0,1,1-.62,5,4,4,0,0,0-1-.06,8.28,8.28,0,0,0-2,.25A2.51,2.51,0,0,1,383.7,83Z"/><path class="cls-4" d="M407.88,62.68a2.5,2.5,0,0,1-2.5-2.5v-4a2.5,2.5,0,0,1,5,0v4A2.5,2.5,0,0,1,407.88,62.68Z"/><path class="cls-4" d="M408.6,50.76a2.5,2.5,0,0,1-2.36-3.31,16,16,0,0,1,2.18-4.19,2.5,2.5,0,0,1,4.05,2.93,11,11,0,0,0-1.5,2.88A2.5,2.5,0,0,1,408.6,50.76Z"/><path class="cls-4" d="M416.71,42.45a2.5,2.5,0,0,1-.87-4.84,15.88,15.88,0,0,1,4.63-1,2.5,2.5,0,0,1,.28,5,10.87,10.87,0,0,0-3.17.66A2.5,2.5,0,0,1,416.71,42.45Z"/><path class="cls-6" d="M451.82,133.42H448v2.78l-2.5,2.5H434.84l-2.5-2.5V52.7A11,11,0,0,0,426,42.75l-7.21,12.48-4.58-2.65V67.25h-3.88v41.43l-2.5,2.5H397.2l-2.5-2.5V91.63a9.17,9.17,0,0,0-2.43-6.33l-8.69,11.06v9.83h-5.66v13.38a8.4,8.4,0,0,0,8.39,8.39h21.53l2.5,2.5v38.67h22V158.79a2.5,2.5,0,0,1,0-.41,2.54,2.54,0,0,1,0-.41,2.5,2.5,0,0,1,2.5-2.5h21.52a8.4,8.4,0,0,0,8.39-8.39v-27.7a8.35,8.35,0,0,0-2-5.47l-10.89,10.89Z"/><path class="cls-4" d="M132.71,169.14H120.37a2.5,2.5,0,0,0,0,5h12.33a2.5,2.5,0,0,0,0-5Z"/><path class="cls-4" d="M111.54,169.14H89.13c0-4.89,0-18.1,0-23.64h24.3a16.08,16.08,0,0,0,16.06-16.06V95a16.06,16.06,0,1,0-32.12,0v18.43H89.13V22.93A19.24,19.24,0,0,0,82.87,8.74l-3.3,3.74a14.26,14.26,0,0,1,4.56,10.44v93l2.5,2.5H99.87l2.5-2.5V95a11.06,11.06,0,1,1,22.12,0v34.49a11.07,11.07,0,0,1-11.06,11.06H86.63c-2.5,0-2.5,2.41-2.5,3.7v24.3H55.51V119.75l-2.5-2.5H26.21a11.07,11.07,0,0,1-11.06-11.06V63.75h-5v42.44a16.08,16.08,0,0,0,16.06,16.06h24.3v46.89H26a2.5,2.5,0,0,0,0,5h85.5a2.5,2.5,0,0,0,0-5Z"/><path class="cls-4" d="M37.27,50.75V92.63l2.5,2.5H53l2.5-2.5V27.39h-5V90.13H42.27V50.75a16.05,16.05,0,0,0-8-13.89l-2.5,4.33A11.06,11.06,0,0,1,37.27,50.75Z"/><path class="cls-4" d="M489.71,169.14H475.12a2.5,2.5,0,0,0,0,5h14.58a2.5,2.5,0,0,0,0-5Z"/><path class="cls-4" d="M394.7,108.68l2.5,2.5h10.63l2.5-2.5V67.25h-5v38.93H399.7V91.63a14.08,14.08,0,0,0-4.32-10.29l-3.11,4a9.17,9.17,0,0,1,2.43,6.33Z"/><path class="cls-4" d="M456.36,106A13.41,13.41,0,0,0,443,119.38V133.7h-5.64v-81a16,16,0,0,0-8.83-14.29L426,42.75a11,11,0,0,1,6.34,9.95v83.5l2.5,2.5h10.64l2.5-2.5V119.38a8.39,8.39,0,0,1,16.78,0v27.7a8.4,8.4,0,0,1-8.39,8.39H434.84a2.5,2.5,0,0,0-2.5,2.5,2.54,2.54,0,0,0,0,.41,2.5,2.5,0,0,0,0,.41v10.34h-22V130.46l-2.5-2.5H386.31a8.4,8.4,0,0,1-8.39-8.39V106.19h-5v13.38A13.41,13.41,0,0,0,386.31,133h19v36.17H392.7V153.73c0-6.92-6-12.55-13.32-12.55s-13.32,5.63-13.32,12.55v15.41H297.79A11.61,11.61,0,0,0,303,157.67a9.73,9.73,0,0,0-11-8.21,8.18,8.18,0,0,0-6.91,9.26,6.93,6.93,0,0,0,7.86,5.86,2,2,0,1,0-.58-4,2.93,2.93,0,0,1-3.33-2.48,4.17,4.17,0,0,1,3.52-4.73,5.72,5.72,0,0,1,6.47,4.83,7.64,7.64,0,0,1-6.46,8.66,10.06,10.06,0,0,1-11.39-8.49,13.07,13.07,0,0,1,11-14.8,11.91,11.91,0,0,1,9.65,2.32c3.35,2.74,5.39,7.74,5.73,14.07a2,2,0,1,0,4-.22c-.41-7.58-2.9-13.44-7.19-17a16,16,0,0,0-12.76-3.19A17.08,17.08,0,0,0,277.26,159a14,14,0,0,0,6.92,10.15h-71c-1.29-8.28-8.83-14.66-17.95-14.66a18.6,18.6,0,0,0-14.69,7.08,11.42,11.42,0,0,0-2.59-.31,10.84,10.84,0,0,0-10.59,7.89H140.54a2.5,2.5,0,0,0,0,5h326a2.5,2.5,0,0,0,0-5h-29.2v-8.66h19a13.41,13.41,0,0,0,13.39-13.39v-27.7A13.44,13.44,0,0,0,456.36,106ZM172.75,169.14a6.21,6.21,0,0,1,10.49,0Zm15.84,0a10.31,10.31,0,0,0-3.39-5.29,13.64,13.64,0,0,1,10.07-4.37c6.33,0,11.63,4.15,12.88,9.66Zm199.11,0H371.06V153.73a8.33,8.33,0,0,1,16.63,0Z"/></svg>