<?xml version="1.0" encoding="UTF-8"?>
<svg width="101px" height="156px" viewBox="0 0 101 156" version="1.1" xmlns="http://www.w3.org/2000/svg" xmlns:xlink="http://www.w3.org/1999/xlink">
    <!-- Generator: Sketch 60 (88103) - https://sketch.com -->
    <title>Без названия</title>
    <desc>Created with Sketch.</desc>
    <g id="Page-1" stroke="none" stroke-width="1" fill="none" fill-rule="evenodd">
        <g id="Без-названия" fill="#FC4C02">
            <path d="M50.56,37.2599801 C34.1423818,37.2438175 19.3325362,47.1216327 13.0395037,62.2852798 C6.74647125,77.4489268 10.2102767,94.9104506 21.8149969,106.523758 C33.4197171,118.137066 50.8786737,121.613788 66.0469718,115.331974 C81.2152699,109.05016 91.1040378,94.2476257 91.1000012,77.83 C91.0944928,55.4378011 72.9521887,37.2820715 50.56,37.2599801 Z M50.33,101.74 C37.003369,101.74 26.2,90.936631 26.2,77.61 C26.2,64.283369 37.003369,53.48 50.33,53.48 C63.656631,53.48 74.46,64.283369 74.46,77.61 C74.46,90.936631 63.656631,101.74 50.33,101.74 Z" id="Shape"></path>
            <path d="M39.76,0.76 C38.14,-0.85 32.65,0.61 32.65,0.61 C32.65,0.61 27.17,2.11 26.59,4.32 C25.59,8.04 35.7,28.16 37.59,27.66 L42.09,26.45 C43.9,25.94 42.48,3.48 39.76,0.76 Z" id="Path"></path>
            <path d="M10.95,13.74 C8.82,12.92 4.39,16.47 4.39,16.47 C4.39,16.47 -0.01,20.06 0.39,22.31 C1,26.1 18.39,40.44 19.85,39.23 L23.48,36.3 C24.92,35.11 14.54,15.13 10.95,13.74 Z" id="Path"></path>
            <path d="M61.16,0.76 C62.78,-0.85 68.27,0.61 68.27,0.61 C68.27,0.61 73.75,2.11 74.34,4.32 C75.34,8.04 65.23,28.16 63.34,27.66 L58.84,26.45 C57.03,25.94 58.45,3.48 61.16,0.76 Z" id="Path"></path>
            <path d="M89.97,13.74 C92.1,12.92 96.53,16.47 96.53,16.47 C96.53,16.47 100.94,20.06 100.58,22.31 C99.97,26.1 82.58,40.44 81.12,39.23 L77.49,36.3 C76.01,35.11 86.39,15.13 89.97,13.74 Z" id="Path"></path>
            <path d="M39.76,154.91 C38.14,156.52 32.65,155.06 32.65,155.06 C32.65,155.06 27.17,153.56 26.59,151.35 C25.59,147.63 35.7,127.51 37.59,128.01 L42.1,129.26 C43.9,129.73 42.48,152.19 39.76,154.91 Z" id="Path"></path>
            <path d="M10.95,141.93 C8.82,142.75 4.39,139.2 4.39,139.2 C4.39,139.2 -0.01,135.61 0.39,133.35 C1,129.56 18.39,115.22 19.85,116.43 L23.48,119.36 C24.92,120.57 14.54,140.54 10.95,141.93 Z" id="Path"></path>
            <path d="M61.16,154.91 C62.78,156.52 68.27,155.06 68.27,155.06 C68.27,155.06 73.75,153.56 74.34,151.35 C75.34,147.63 65.23,127.51 63.34,128.01 L58.84,129.22 C57.03,129.73 58.45,152.19 61.16,154.91 Z" id="Path"></path>
            <path d="M89.97,141.93 C92.1,142.75 96.53,139.2 96.53,139.2 C96.53,139.2 100.94,135.61 100.58,133.35 C99.97,129.56 82.58,115.22 81.12,116.43 L77.49,119.36 C76.01,120.57 86.39,140.54 89.97,141.93 Z" id="Path"></path>
        </g>
    </g>
</svg>