<svg id="Layer_1" style="enable-background:new 0 0 64 64" version="1.1" viewBox="0 0 64 64" xml:space="preserve" xmlns="http://www.w3.org/2000/svg"><style>.st4{fill:#fff}.st10{fill:#ffbf0b}.st11{fill:#1a1a54}</style><circle class="st10" cx="32" cy="32" r="32"/><circle class="st4" cx="44.5" cy="21.5" r="7.5"/><path class="st11" d="M52 32c0 11-9 20-20 20s-20-9-20-20h40z"/><path d="M32 41c-6 0-11.3 2-14.4 5 3.7 3.7 8.8 6 14.4 6s10.7-2.3 14.4-6.1C43.3 42.9 38 41 32 41z" style="fill:#dc2863"/><path class="st4" d="M42.4 37H21.6c-1 0-1.8-.7-2-1.6L19 32h26l-.7 3.4c-.2.9-1 1.6-1.9 1.6z"/><circle class="st11" cx="44.5" cy="21.5" r="4.5"/><circle class="st4" cx="19.5" cy="21.5" r="7.5"/><circle class="st11" cx="19.5" cy="21.5" r="4.5"/><ellipse class="st10" cx="44.5" cy="28" rx="16.4" ry="4"/><ellipse class="st10" cx="19.5" cy="28" rx="16.4" ry="4"/></svg>