<svg id="Icons" style="enable-background:new 0 0 32 32" version="1.1" viewBox="0 0 32 32" xml:space="preserve" xmlns="http://www.w3.org/2000/svg"><style>.st0{fill:none;stroke:#000;stroke-width:2;stroke-linecap:round;stroke-linejoin:round;stroke-miterlimit:10}</style><circle class="st0" cx="16" cy="13" r="2"/><path class="st0" d="M10 15.9c-1.9 1.5-3.4 3.6-4 6.1h2.3c1.5 0 2.6-1.4 2.2-2.8-.4-1.4-.6-2.8-.6-4.3C10 9.4 12.5 4.7 16 3c3.5 1.7 6 6.4 6 11.8 0 1.5-.2 3-.6 4.3-.4 1.4.7 2.8 2.2 2.8H26c-.6-2.5-2.1-4.7-4-6.1M16 22v8M13 24v4M19 24v4"/></svg>