<svg xmlns="http://www.w3.org/2000/svg" viewBox="0 0 512 512" style="enable-background:new 0 0 512 512" xml:space="preserve"><path style="fill:#afd755" d="M409.259 188.286c10.919-15.295 17.409-33.966 17.409-54.19 0-51.617-41.843-93.46-93.46-93.46-.765 0-1.506.096-2.266.115C314.999 16.241 287.418 0 256.001 0c-36.446 0-67.742 21.843-81.661 53.125-55.855 14.591-97.133 65.242-97.133 125.669 0 33.224 12.565 63.44 33.068 86.426a114.958 114.958 0 0 0-.561 11.098c0 62.838 50.94 113.778 113.778 113.778 6.849 0 34.125-.611 40.635-1.779l2.754-28.16c16.099 8.725 34.537 13.685 54.134 13.685 62.838 0 113.778-50.94 113.778-113.778.002-27.225-9.586-52.195-25.534-71.778z"/><path style="fill:#96be4b" d="M264.128 347.329c-13.04 3.364-27.479 3.251-42.911-4.038-20.9-9.871-36.045-29.934-38.096-52.956-.806-9.043.268-17.732 2.845-25.748 1.013-3.152-.291-6.5-2.851-8.6-19.979-16.387-32.765-41.211-32.765-69.067 0-36.149 21.496-67.201 52.372-81.278 3.222-1.469 5.3-4.672 4.943-8.195a79.873 79.873 0 0 1-.426-8.051c0-42.338 29.465-77.718 68.985-86.964C269.714.92 262.974 0 256.001 0c-36.446 0-67.742 21.843-81.661 53.125-55.855 14.591-97.133 65.242-97.133 125.669 0 33.224 12.565 63.44 33.068 86.426a114.958 114.958 0 0 0-.561 11.098c0 62.838 50.94 113.778 113.778 113.778 6.849 0 34.125-.611 40.635-1.779v-40.988h.001z"/><path style="fill:#af6e5a" d="M247.874 349.46c-.261 0-.512-.036-.772-.039l-7.355 154.452h48.762l-7.197-151.124c-.258-5.414-5.677-9.317-10.75-7.41a64.318 64.318 0 0 1-22.688 4.121z"/><path style="fill:#965a50" d="M281.312 352.749c-.258-5.414-5.677-9.317-10.75-7.41a64.319 64.319 0 0 1-22.688 4.122c-.261 0-.512-.036-.772-.039l-7.355 154.452h24.381V371.572a8.127 8.127 0 0 1 5.557-7.71l11.967-3.989-.34-7.124z"/><path style="fill:#96be4b" d="M304.763 512h-81.27c-4.488 0-8.127-3.635-8.127-8.127s3.639-8.127 8.127-8.127h81.27c4.488 0 8.127 3.635 8.127 8.127S309.251 512 304.763 512z"/></svg>