<?xml version="1.0" encoding="UTF-8"?>
<svg width="59px" height="55px" viewBox="0 0 59 55" version="1.1" xmlns="http://www.w3.org/2000/svg" xmlns:xlink="http://www.w3.org/1999/xlink">
    <title>car</title>
    <g id="Page-1" stroke="none" stroke-width="1" fill="none" fill-rule="evenodd">
        <g id="car" transform="translate(0.000000, 0.000000)" fill="#FFFFFF" fill-rule="nonzero">
            <path d="M56.5,46.47 L2.5,46.47 C1.13091951,46.47 0.0164289624,45.3689819 0,44 L0,25.85 C0,24.1351737 0.419153805,22.446336 1.22,20.93 L7.71,6.26 C9.38660672,2.45519933 13.1521739,0 17.31,0 L41.69,0 C45.846292,0.00489195227 49.6092937,2.45868269 51.29,6.26 L57.78,20.93 C58.5797114,22.4467687 58.9984175,24.1353213 59,25.85 L59,44 C58.983571,45.3689819 57.8690805,46.47 56.5,46.47 Z M4.99985959,41.47 L54,41.47 L54,25.85 C53.9985979,24.9312892 53.7683301,24.0274021 53.33,23.22 L53.24,23 L46.72,8.28 C45.8451977,6.29699227 43.8873575,5.01264913 41.72,5 L17.31,5 C15.1426425,5.01264913 13.1848023,6.29699227 12.31,8.28 L5.76,23 L5.67,23.19 C5.22394762,24.0052049 4.99333659,24.9207651 4.99985959,25.85 L4.99985959,41.47 Z" id="Shape"></path>
            <path d="M56.5,54.47 L54.5,54.47 C53.1309195,54.47 52.016429,53.3689819 52,52 L52,44 C52,42.6192881 53.1192881,41.4999149 54.5,41.4999149 C54.8445744,41.4970922 55.1857031,41.5687292 55.5,41.71 C55.8142969,41.5687292 56.1554256,41.4970922 56.5,41.4999149 C57.8807119,41.4999149 59,42.6192881 59,44 L59,52 C58.983571,53.3689819 57.8690805,54.47 56.5,54.47 Z" id="Path"></path>
            <path d="M4.5,54.47 L2.5,54.47 C1.13091951,54.47 0.0164289624,53.3689819 0,52 L0,44 C0,42.6192881 1.11928813,41.4999149 2.5,41.4999149 C2.84457443,41.4970922 3.18570306,41.5687292 3.5,41.71 C3.81429694,41.5687292 4.15542557,41.4970922 4.5,41.4999149 C5.16304122,41.4999149 5.79892601,41.7633921 6.26776695,42.232233 C6.7366079,42.701074 7,43.3369588 7,44 L7,52 C6.98357104,53.3689819 5.86908049,54.47 4.5,54.47 Z" id="Path"></path>
            <circle id="Oval" cx="42" cy="33.89" r="4"></circle>
            <circle id="Oval" cx="17" cy="33.89" r="4"></circle>
            <path d="M2.79,26.23 C1.40928813,26.23 0.29,25.1107119 0.29,23.73 C0.29,22.3492881 1.40928813,21.23 2.79,21.23 L56.21,21.23 C57.5907119,21.23 58.71,22.3492881 58.71,23.73 C58.71,25.1107119 57.5907119,26.23 56.21,26.23 L2.79,26.23 Z" id="Path"></path>
        </g>
    </g>
</svg>