<?xml version="1.0" encoding="UTF-8"?>
<svg width="59px" height="59px" viewBox="0 0 59 59" version="1.1" xmlns="http://www.w3.org/2000/svg" xmlns:xlink="http://www.w3.org/1999/xlink">
    <title>computer</title>
    <g id="Page-1" stroke="none" stroke-width="1" fill="none" fill-rule="evenodd">
        <g id="computer" transform="translate(0.000000, 0.000000)" fill="#FFFFFF" fill-rule="nonzero">
            <path d="M19.35,59 L6.5,59 C2.91243253,58.9944934 0.0055066367,56.0875675 0,52.5 L0,6.5 C0.0055066367,2.91243253 2.91243253,0.0055066367 6.5,0 L19.35,0 C22.9375675,0.0055066367 25.8444934,2.91243253 25.85,6.5 L25.85,52.5 C25.8444934,56.0875675 22.9375675,58.9944934 19.35,59 Z M6.5,5 C5.67157288,5 5,5.67157288 5,6.5 L5,52.5 C5,53.3284271 5.67157288,54 6.5,54 L19.35,54 C20.1784271,54 20.85,53.3284271 20.85,52.5 L20.85,6.5 C20.85,5.67157288 20.1784271,5 19.35,5 L6.5,5 Z" id="Shape"></path>
            <path d="M50.65,46.23 L23.35,46.23 L23.35,41.23 L50.65,41.23 C52.5001539,41.23 54,39.7301539 54,37.88 L54,19.62 C54,17.7698461 52.5001539,16.27 50.65,16.27 L23.35,16.27 L23.35,11.27 L50.65,11.27 C55.2615777,11.27 59,15.0084223 59,19.62 L59,37.88 C59,40.0945577 58.1202704,42.2184129 56.5543416,43.7843416 C54.9884129,45.3502704 52.8645577,46.23 50.65,46.23 Z" id="Path"></path>
            <path d="M43.54,55.73 L30,55.73 C28.6192881,55.73 27.5,54.6107119 27.5,53.23 C27.5,51.8492881 28.6192881,50.73 30,50.73 L43.54,50.73 C44.9207119,50.73 46.04,51.8492881 46.04,53.23 C46.04,54.6107119 44.9207119,55.73 43.54,55.73 L43.54,55.73 Z" id="Path"></path>
            <path d="M36.77,55.73 C35.3892881,55.73 34.27,54.6107119 34.27,53.23 L34.27,43.73 C34.27,42.3492881 35.3892881,41.23 36.77,41.23 C38.1507119,41.23 39.27,42.3492881 39.27,43.73 L39.27,53.23 C39.27,54.6107119 38.1507119,55.73 36.77,55.73 L36.77,55.73 Z" id="Path"></path>
            <path d="M23.35,19.13 L2.5,19.13 C1.11928813,19.13 0,18.0107119 0,16.63 C0,15.2492881 1.11928813,14.13 2.5,14.13 L23.35,14.13 C24.7307119,14.13 25.85,15.2492881 25.85,16.63 C25.85,18.0107119 24.7307119,19.13 23.35,19.13 L23.35,19.13 Z" id="Path"></path>
            <path d="M23.35,30.13 L2.5,30.13 C1.11928813,30.13 0,29.0107119 0,27.63 C0,26.2492881 1.11928813,25.13 2.5,25.13 L23.35,25.13 C24.7307119,25.13 25.85,26.2492881 25.85,27.63 C25.85,29.0107119 24.7307119,30.13 23.35,30.13 L23.35,30.13 Z" id="Path"></path>
            <path d="M15.92,41.13 L9.92,41.13 C8.53928813,41.13 7.42,40.0107119 7.42,38.63 C7.42,37.2492881 8.53928813,36.13 9.92,36.13 L15.92,36.13 C17.3007119,36.13 18.42,37.2492881 18.42,38.63 C18.42,40.0107119 17.3007119,41.13 15.92,41.13 L15.92,41.13 Z" id="Path"></path>
            <path d="M12.42,49.13 C11.0392881,49.13 9.92,48.0107119 9.92,46.63 C9.92,45.2492881 11.0392881,44.13 12.42,44.13 L13.42,44.13 C14.8007119,44.13 15.92,45.2492881 15.92,46.63 C15.92,48.0107119 14.8007119,49.13 13.42,49.13 L12.42,49.13 Z" id="Path"></path>
        </g>
    </g>
</svg>