<?xml version="1.0" encoding="UTF-8"?>
<svg width="59px" height="58px" viewBox="0 0 59 58" version="1.1" xmlns="http://www.w3.org/2000/svg" xmlns:xlink="http://www.w3.org/1999/xlink">
    <title>home</title>
    <g id="Page-1" stroke="none" stroke-width="1" fill="none" fill-rule="evenodd">
        <g id="home" transform="translate(0.024919, -0.000000)" fill="#FFFFFF" fill-rule="nonzero">
            <path d="M2.47508131,32 C1.47557192,31.9900111 0.578080573,31.385621 0.193016881,30.4632085 C-0.192046811,29.5407961 0.0093381232,28.477677 0.705081308,27.76 L27.7050813,0.760000023 C28.1631902,0.288600779 28.7879407,0.0157212363 29.4450813,0 L29.4450813,0 C30.1083592,0 30.744709,0.262359805 31.2150813,0.730000023 L58.2150813,27.73 C59.1926253,28.707544 59.1926253,30.292456 58.2150813,31.27 C57.2375373,32.247544 55.6526253,32.247544 54.6750813,31.27 L29.4450813,6 L4.24508131,31.29 C3.77207376,31.7512467 3.13571909,32.0065076 2.47508131,32 Z" id="Path"></path>
            <path d="M41.5250813,57.86 L17.4250813,57.86 C11.6472414,57.8379681 6.97508131,53.147882 6.97508131,47.37 L6.97508131,22.57 C6.97508131,21.1892881 8.09436943,20.07 9.47508131,20.07 C10.8557932,20.07 11.9750813,21.1892881 11.9750813,22.57 L11.9750813,47.37 C11.9750813,50.4020433 14.433038,52.86 17.4650813,52.86 L41.5650813,52.86 C44.5658368,52.8162685 46.9754,50.3710741 46.9750813,47.37 L46.9750813,22.57 C46.9750813,21.1892881 48.0943694,20.07 49.4750813,20.07 C50.8557932,20.07 51.9750813,21.1892881 51.9750813,22.57 L51.9750813,47.37 C51.9750813,53.147882 47.3029212,57.8379681 41.5250813,57.86 Z" id="Path"></path>
            <path d="M22.4750813,48.8600401 C21.8112247,48.8626715 21.1737866,48.6001374 20.7043653,48.1307161 C20.234944,47.6612948 19.9724098,47.0238566 19.9750412,46.36 L19.9750412,39.5100002 C19.9750412,34.263295 24.2283763,30.0100002 29.4750813,30.0100002 C34.7217864,30.0100002 38.9751214,34.263295 38.9751214,39.5100002 L38.9751214,46.36 C38.9777528,47.0238566 38.7152187,47.6612948 38.2457974,48.1307161 C37.7763761,48.6001374 37.1389379,48.8626715 36.4750813,48.8600401 L22.4750813,48.8600401 Z M24.9750813,43.86 L33.9750813,43.86 L33.9750813,39.51 C33.9750813,37.0247186 31.9603627,35.01 29.4750813,35.01 C26.9897999,35.01 24.9750813,37.0247186 24.9750813,39.51 L24.9750813,43.86 Z" id="Shape"></path>
        </g>
    </g>
</svg>