<?xml version="1.0" encoding="UTF-8"?>
<svg width="39px" height="59px" viewBox="0 0 39 59" version="1.1" xmlns="http://www.w3.org/2000/svg" xmlns:xlink="http://www.w3.org/1999/xlink">
    <title>phone</title>
    <g id="Page-1" stroke="none" stroke-width="1" fill="none" fill-rule="evenodd">
        <g id="phone" transform="translate(0.000000, 0.000000)" fill="#FFFFFF" fill-rule="nonzero">
            <path d="M28.5,59 L10.5,59 C4.70329514,58.9944872 0.00551279961,54.2967049 0,48.5 L0,10.5 C0.00551279961,4.70329514 4.70329514,0.00551279961 10.5,0 L28.5,0 C34.2967049,0.00551279961 38.9944872,4.70329514 39,10.5 L39,48.5 C38.9944872,54.2967049 34.2967049,58.9944872 28.5,59 Z M10.5,5 C7.46471651,5.0055037 5.0055037,7.46471651 5,10.5 L5,48.5 C5.0055037,51.5352835 7.46471651,53.9944963 10.5,54 L28.5,54 C31.5352835,53.9944963 33.9944963,51.5352835 34,48.5 L34,10.5 C33.9944963,7.46471651 31.5352835,5.0055037 28.5,5 L10.5,5 Z" id="Shape"></path>
            <path d="M23.5,15 L15.5,15 C14.1192881,15 13,13.8807119 13,12.5 C13,11.1192881 14.1192881,10 15.5,10 L23.5,10 C24.8807119,10 26,11.1192881 26,12.5 C26,13.8807119 24.8807119,15 23.5,15 Z" id="Path"></path>
            <path d="M20,50 L19,50 C17.6192881,50 16.5,48.8807119 16.5,47.5 C16.5,46.1192881 17.6192881,45 19,45 L20,45 C21.3807119,45 22.5,46.1192881 22.5,47.5 C22.5,48.8807119 21.3807119,50 20,50 Z" id="Path"></path>
        </g>
    </g>
</svg>