<?xml version="1.0" encoding="UTF-8"?>
<svg width="107px" height="107px" viewBox="0 0 107 107" version="1.1" xmlns="http://www.w3.org/2000/svg" xmlns:xlink="http://www.w3.org/1999/xlink">
    <title>5474818_add_create_list_menu_more_icon</title>
    <g id="Page-1" stroke="none" stroke-width="1" fill="none" fill-rule="evenodd">
        <g id="5474818_add_create_list_menu_more_icon">
            <path d="M80.5454545,50 L70.4545455,50 C63.0238052,50 57,43.9761948 57,36.5454545 L57,26.4545455 C57,19.0238052 63.0238052,13 70.4545455,13 L80.5454545,13 C87.9761948,13 94,19.0238052 94,26.4545455 L94,36.5454545 C94,43.9761948 87.9761948,50 80.5454545,50 Z M70.4545455,19.7272727 C66.7391753,19.7272727 63.7272727,22.7391753 63.7272727,26.4545455 L63.7272727,36.5454545 C63.7272727,40.2608247 66.7391753,43.2727273 70.4545455,43.2727273 L80.5454545,43.2727273 C84.2608247,43.2727273 87.2727273,40.2608247 87.2727273,36.5454545 L87.2727273,26.4545455 C87.2727273,22.7391753 84.2608247,19.7272727 80.5454545,19.7272727 L70.4545455,19.7272727 Z" id="Shape" fill="#FFFFFF" fill-rule="nonzero"></path>
            <path d="M36.5454545,50 L26.4545455,50 C19.0238052,50 13,43.9761948 13,36.5454545 L13,26.4545455 C13,19.0238052 19.0238052,13 26.4545455,13 L36.5454545,13 C43.9761948,13 50,19.0238052 50,26.4545455 L50,36.5454545 C50,43.9761948 43.9761948,50 36.5454545,50 Z M26.4545455,19.7272727 C22.7391753,19.7272727 19.7272727,22.7391753 19.7272727,26.4545455 L19.7272727,36.5454545 C19.7272727,40.2608247 22.7391753,43.2727273 26.4545455,43.2727273 L36.5454545,43.2727273 C40.2608247,43.2727273 43.2727273,40.2608247 43.2727273,36.5454545 L43.2727273,26.4545455 C43.2727273,22.7391753 40.2608247,19.7272727 36.5454545,19.7272727 L26.4545455,19.7272727 Z" id="Shape" fill="#FFFFFF" fill-rule="nonzero"></path>
            <path d="M36.5454545,94 L26.4545455,94 C19.0238052,94 13,87.9761948 13,80.5454545 L13,70.4545455 C13,63.0238052 19.0238052,57 26.4545455,57 L36.5454545,57 C43.9761948,57 50,63.0238052 50,70.4545455 L50,80.5454545 C50,87.9761948 43.9761948,94 36.5454545,94 Z M26.4545455,63.7272727 C22.7391753,63.7272727 19.7272727,66.7391753 19.7272727,70.4545455 L19.7272727,80.5454545 C19.7272727,84.2608247 22.7391753,87.2727273 26.4545455,87.2727273 L36.5454545,87.2727273 C40.2608247,87.2727273 43.2727273,84.2608247 43.2727273,80.5454545 L43.2727273,70.4545455 C43.2727273,66.7391753 40.2608247,63.7272727 36.5454545,63.7272727 L26.4545455,63.7272727 Z" id="Shape" fill="#FFFFFF" fill-rule="nonzero"></path>
            <path d="M80.5454545,94 L70.4545455,94 C63.0238052,94 57,87.9761948 57,80.5454545 L57,70.4545455 C57,63.0238052 63.0238052,57 70.4545455,57 L80.5454545,57 C87.9761948,57 94,63.0238052 94,70.4545455 L94,80.5454545 C94,87.9761948 87.9761948,94 80.5454545,94 Z M70.4545455,63.7272727 C66.7391753,63.7272727 63.7272727,66.7391753 63.7272727,70.4545455 L63.7272727,80.5454545 C63.7272727,84.2608247 66.7391753,87.2727273 70.4545455,87.2727273 L80.5454545,87.2727273 C84.2608247,87.2727273 87.2727273,84.2608247 87.2727273,80.5454545 L87.2727273,70.4545455 C87.2727273,66.7391753 84.2608247,63.7272727 80.5454545,63.7272727 L70.4545455,63.7272727 Z" id="Shape" fill="#FFFFFF" fill-rule="nonzero"></path>
            <rect id="Rectangle" x="0" y="0" width="107" height="107"></rect>
        </g>
    </g>
</svg>