<?xml version="1.0" encoding="UTF-8"?>
<svg width="105px" height="105px" viewBox="0 0 105 105" version="1.1" xmlns="http://www.w3.org/2000/svg" xmlns:xlink="http://www.w3.org/1999/xlink">
    <title>home-line</title>
    <g id="Page-1" stroke="none" stroke-width="1" fill="none" fill-rule="evenodd">
        <g id="home-line">
            <polygon id="Path" points="0 0 105 0 105 105 0 105"></polygon>
            <path d="M92.0000011,87.6226264 C92.0000011,90.0401831 90.0350255,92 87.6111092,92 L17.3888908,92 C14.9649745,92 13.0000011,90.0401831 13.0000011,87.6226264 L13.0000011,41.6164299 C12.9990618,40.2646632 13.6243483,38.9882894 14.6941131,38.1583048 L49.8052224,10.9222862 C51.3901975,9.69257125 53.6098025,9.69257125 55.1947776,10.9222862 L90.3058869,38.1583048 C91.3756517,38.9882894 92.0009382,40.2646632 92.0000011,41.6164299 L92.0000011,87.6226264 L92.0000011,87.6226264 Z M83.2222206,83.2452528 L83.2222206,43.7525882 L52.5,19.9221664 L21.7777794,43.7525882 L21.7777794,83.2452528 L83.2222206,83.2452528 Z" id="Shape" fill="#FFFFFF" fill-rule="nonzero"></path>
        </g>
    </g>
</svg>